<svg width="119" height="119" viewBox="0 0 119 119" fill="none" xmlns="http://www.w3.org/2000/svg">
<path d="M7.53125 7.0293C16.9038 -2.34329 32.1001 -2.34329 41.4727 7.0293L59.2812 24.8379L77.0332 7.08594C86.4058 -2.28638 101.602 -2.28647 110.975 7.08594C120.347 16.4584 120.347 31.6547 110.975 41.0273L93.2227 58.7793L111.477 77.0332C120.849 86.4057 120.849 101.601 111.477 110.974C102.104 120.346 86.9077 120.346 77.5352 110.974L59.2812 92.7197L40.9707 111.031C31.5981 120.404 16.4018 120.404 7.0293 111.031C-2.34315 101.659 -2.34315 86.4624 7.0293 77.0898L25.3398 58.7783L7.53125 40.9707C-1.84129 31.5982 -1.84119 16.4019 7.53125 7.0293Z" fill="#E4B7B7"/>
</svg>
